<svg xmlns="http://www.w3.org/2000/svg" viewBox="0 0 192 192">
  <defs>
    <linearGradient id="g" x1="0" x2="1" y1="0" y2="1">
      <stop offset="0%" stop-color="#0f7a55" />
      <stop offset="100%" stop-color="#1ca873" />
    </linearGradient>
  </defs>
  <rect width="192" height="192" rx="36" fill="#e8f7ef" />
  <rect x="26" y="26" width="140" height="140" rx="24" fill="url(#g)" />
  <path d="M56 56h20v10H66v10H56V56zm60 0h20v20h-10V66h-10V56zM56 116h10v10h10v10H56v-20zm70 10v-10h10v20h-20v-10h10zM82 78h8v8h-8v-8zm20 0h8v8h-8v-8zm-20 20h8v8h-8v-8zm20 0h8v8h-8v-8z" fill="#f8fff9" />
</svg>
