<svg xmlns="http://www.w3.org/2000/svg" viewBox="0 0 512 512">
  <defs>
    <linearGradient id="g" x1="0" x2="1" y1="0" y2="1">
      <stop offset="0%" stop-color="#0f7a55" />
      <stop offset="100%" stop-color="#1ca873" />
    </linearGradient>
  </defs>
  <rect width="512" height="512" rx="88" fill="#e8f7ef" />
  <rect x="68" y="68" width="376" height="376" rx="58" fill="url(#g)" />
  <path d="M148 148h56v28h-28v28h-28v-56zm160 0h56v56h-28v-28h-28v-28zM148 308h28v28h28v28h-56v-56zm188 28v-28h28v56h-56v-28h28zM220 204h20v20h-20v-20zm52 0h20v20h-20v-20zm-52 52h20v20h-20v-20zm52 0h20v20h-20v-20z" fill="#f8fff9" />
</svg>
